<svg width="16" height="16" viewBox="0 0 16 16" fill="none" xmlns="http://www.w3.org/2000/svg">
<path fill-rule="evenodd" clip-rule="evenodd" d="M7.99999 0C11.0583 0 13.5464 2.48809 13.5464 5.54637C13.5464 6.79731 12.6688 8.85897 10.9382 11.6741C10.0442 13.1283 9.1413 14.422 8.68383 15.0622H10.6414V16H5.35861V15.0622H7.31618C6.85871 14.422 5.95583 13.1283 5.0618 11.6741C3.33114 8.85897 2.45361 6.79734 2.45361 5.54637C2.45361 2.48809 4.94171 0 7.99999 0ZM3.39143 5.54637C3.39143 7.54412 6.43155 12.2133 7.99999 14.4095C9.56839 12.213 12.6086 7.54319 12.6086 5.54637C12.6086 3.00519 10.5412 0.937781 7.99999 0.937781C5.4588 0.937781 3.39136 3.00519 3.39143 5.54637ZM5.15332 5.46043C5.15332 3.8908 6.43035 2.61377 7.99998 2.61377C9.56964 2.61377 10.8466 3.89077 10.8466 5.46043C10.8466 7.03006 9.56964 8.30709 7.99998 8.30709C6.43032 8.30709 5.15332 7.03006 5.15332 5.46043ZM6.09107 5.46043C6.09107 6.513 6.94742 7.36934 7.99998 7.36934C9.05255 7.36934 9.90886 6.513 9.90886 5.46043C9.90886 4.40784 9.05255 3.55152 7.99998 3.55152C6.94742 3.55152 6.09107 4.40784 6.09107 5.46043Z" fill="white"/>
</svg>
