<svg width="120" height="112" viewBox="0 0 120 112" fill="none" xmlns="http://www.w3.org/2000/svg">
<mask id="mask0" mask-type="alpha" maskUnits="userSpaceOnUse" x="0" y="93" width="120" height="19">
<path d="M0 93.5514H120V112H0V93.5514Z" fill="#2E323A"/>
</mask>
<g mask="url(#mask0)">
<path fill-rule="evenodd" clip-rule="evenodd" d="M120 102.776C120 107.87 93.1368 112 59.9998 112C26.8629 112 0 107.87 0 102.776C0 97.6813 26.8629 93.5514 59.9998 93.5514C93.1368 93.5514 120 97.6813 120 102.776Z" fill="#272B32"/>
</g>
<path fill-rule="evenodd" clip-rule="evenodd" d="M99.0201 51.9672L113.191 104.93L85.3803 95.0457L60.7527 104.195L36.1247 95.0457L8.3147 104.93L24.1705 49.3708L45.3031 42.6206L60.7527 49.668L76.202 42.6206L99.0201 51.9672Z" fill="#434852"/>
<path fill-rule="evenodd" clip-rule="evenodd" d="M86.8924 24.3623C86.8924 28.6866 85.7484 32.7447 83.7515 36.2649L82.4431 38.5227L78.5554 45.2309L86.8921 94.4688L62.2645 103.618L62.2644 73.3451L45.9725 45.2294L37.6368 94.4689L9.82642 104.353L25.6823 48.7941L44.6271 42.9077L42.9787 40.0631L40.7777 36.2649C38.5864 32.4025 37.4225 27.8929 37.6696 23.0946C38.31 10.6462 48.5538 0.57772 61.1421 0.0246712C75.2544 -0.595006 86.8924 10.5392 86.8924 24.3623Z" fill="#2D3138"/>
<path fill-rule="evenodd" clip-rule="evenodd" d="M61.6753 0.00012207C75.6942 0.00012207 87.0588 11.2422 87.0588 25.11C87.0588 29.4623 85.9329 33.6566 83.8178 37.3845L82.5095 39.6422L80.214 43.6025L99.2153 51.2114C99.4319 51.2981 99.5957 51.479 99.6592 51.7013L100.771 55.5968C100.884 55.9943 100.651 56.4074 100.249 56.5196C99.8472 56.6318 99.4296 56.4006 99.3162 56.0032L98.3049 52.4602L79.4551 44.9118L62.3311 74.4646C62.0407 74.9658 61.31 74.9658 61.0196 74.4646L43.3821 44.0273L43.3687 44.0025L25.7138 50.119L10.3637 103.906L36.7917 94.513C36.9604 94.453 37.1452 94.4543 37.313 94.5167L61.6753 103.567L67.8239 101.283L86.0371 94.5167C86.205 94.4543 86.3897 94.453 86.5585 94.513L112.987 103.906L99.9851 58.3479C99.8717 57.9505 100.105 57.5374 100.507 57.4252C100.909 57.313 101.327 57.5442 101.44 57.9416L114.841 104.898C115.008 105.483 114.436 106.01 113.858 105.804L86.3087 96.0132L68.3554 102.683L61.941 105.066C61.7697 105.129 61.5809 105.129 61.4095 105.066L37.0415 96.0133L9.49286 105.804C8.91432 106.01 8.34281 105.483 8.50983 104.898L24.3657 49.3386C24.4326 49.1041 24.6108 48.9166 24.8433 48.8361L43.4815 42.3794C43.8755 42.2429 44.3068 42.4482 44.4448 42.8379C44.4701 42.9094 44.4837 42.9821 44.4868 43.054C44.5682 43.1128 44.6396 43.1902 44.6937 43.2836L61.6753 72.5892L81.198 38.8985L82.5029 36.6466C84.4887 33.1465 85.5471 29.204 85.5471 25.11C85.5471 12.0682 74.8593 1.49558 61.6753 1.49558C48.4911 1.49558 37.8032 12.0681 37.8032 25.11C37.8032 27.6717 38.2171 30.1772 39.0195 32.5605C39.1514 32.9523 38.9372 33.3757 38.5412 33.5062C38.1451 33.6366 37.7171 33.4248 37.5852 33.033C36.7317 30.498 36.2915 27.8329 36.2915 25.11C36.2915 11.2422 47.6562 0.00012207 61.6753 0.00012207ZM99.7627 89.819L101.272 90.3755C101.663 90.5197 101.862 90.9504 101.716 91.3373C101.57 91.7243 101.135 91.921 100.744 91.7767L99.2346 91.2202C98.8435 91.076 98.6446 90.6454 98.7904 90.2584C98.9362 89.8715 99.3715 89.6747 99.7627 89.819ZM79.4953 83.6071L79.8466 86.677L84.5194 84.1947L97.7678 89.0829C98.1589 89.2272 98.3577 89.6579 98.2118 90.0448C98.0659 90.4317 97.6306 90.6284 97.2394 90.484L84.6321 85.8323L80.5407 88.0063C80.3515 88.1068 80.1383 88.1195 79.949 88.0585C79.8701 88.3432 79.6221 88.5658 79.3067 88.6012C78.8919 88.6477 78.5175 88.3527 78.4705 87.9424L77.9931 83.7755C77.9461 83.3652 78.2443 82.9949 78.6591 82.9484C79.0739 82.9018 79.4482 83.1968 79.4953 83.6071ZM48.3735 83.0536L52.1317 85.3293C52.4878 85.5449 52.5997 86.0052 52.3818 86.3574C52.1638 86.7096 51.6985 86.8204 51.3424 86.6048L47.5842 84.3291C47.2282 84.1135 47.1162 83.6532 47.3342 83.3009C47.5521 82.9487 48.0174 82.838 48.3735 83.0536ZM32.2588 80.8185C32.3694 81.2167 32.1328 81.6283 31.7302 81.7377L22.8712 84.1463C22.4687 84.2558 22.0527 84.0217 21.942 83.6235C21.8314 83.2253 22.068 82.8138 22.4706 82.7043L31.3296 80.2957C31.7321 80.1863 32.1481 80.4203 32.2588 80.8185ZM52.3009 78.013C52.7174 78.0419 53.0313 78.3993 53.0021 78.8113L52.6713 83.4776C52.6421 83.8896 52.2808 84.2001 51.8643 84.1712C51.4479 84.1423 51.134 83.785 51.1632 83.373L51.494 78.7066C51.5233 78.2947 51.8845 77.9842 52.3009 78.013ZM39.9495 77.9524L45.2594 81.1677C45.6154 81.3833 45.7274 81.8436 45.5094 82.1958C45.2915 82.5481 44.8261 82.6588 44.4701 82.4432L39.7187 79.566L36.0863 80.5535C35.6838 80.6629 35.2678 80.4289 35.1572 80.0307C35.0465 79.6325 35.2832 79.2209 35.6857 79.1115L39.9495 77.9524ZM83.9976 77.0723L84.7779 81.6821C84.8468 82.0894 84.5689 82.4748 84.1572 82.543C83.7455 82.6112 83.3558 82.3364 83.2869 81.9291L82.5066 77.3193C82.4376 76.912 82.7155 76.5265 83.1272 76.4583C83.5389 76.3901 83.9286 76.665 83.9976 77.0723ZM76.7081 59.5689C76.872 59.9487 76.6936 60.388 76.3096 60.5501L76.1685 60.6089L76.1871 60.6082C76.5655 60.6092 76.8915 60.8907 76.9351 61.2717L79.1973 81.0082C79.2443 81.4185 78.9462 81.7889 78.5313 81.8354C78.1165 81.8819 77.7422 81.587 77.6951 81.1767L75.433 61.4402C75.4062 61.2061 75.4917 60.985 75.6471 60.8296L72.1096 62.3232C71.7256 62.4853 71.2815 62.3088 71.1177 61.9289C70.9538 61.5491 71.1322 61.1098 71.5162 60.9477L75.7162 59.1746C76.1002 59.0126 76.5443 59.1891 76.7081 59.5689ZM52.9786 68.4663C53.395 68.4952 53.7089 68.8525 53.6797 69.2645L53.1133 77.2481C53.0841 77.6601 52.7228 77.9706 52.3063 77.9417C51.8899 77.9128 51.576 77.5554 51.6052 77.1434L52.1716 69.1598C52.2009 68.7478 52.5621 68.4373 52.9786 68.4663ZM44.9893 48.3069C45.4011 48.3751 45.6789 48.7606 45.61 49.1679L41.1206 75.6846C41.0517 76.0919 40.662 76.3667 40.2503 76.2985C39.8386 76.2303 39.5607 75.8448 39.6296 75.4376L44.119 48.9209C44.188 48.5136 44.5776 48.2387 44.9893 48.3069ZM79.9672 53.2667L83.3216 73.0808C83.3906 73.4881 83.1127 73.8736 82.701 73.9418C82.2893 74.01 81.8996 73.7351 81.8306 73.3278L78.4762 53.5137C78.4072 53.1064 78.6851 52.7209 79.0968 52.6527C79.5086 52.5845 79.8982 52.8594 79.9672 53.2667ZM53.3197 63.6564C53.7362 63.6853 54.0501 64.0427 54.0209 64.4546L53.8167 67.3324C53.7875 67.7444 53.4262 68.0549 53.0098 68.026C52.5933 67.9971 52.2794 67.6397 52.3086 67.2277L52.5128 64.3499C52.542 63.938 52.9033 63.6275 53.3197 63.6564ZM40.3241 35.6719C40.4929 36.0043 40.6674 36.3293 40.844 36.6407L43.045 40.4389C43.2527 40.7971 43.1274 41.254 42.7652 41.4594C42.403 41.6648 41.9411 41.5409 41.7335 41.1826L39.529 37.3785C39.3376 37.041 39.1524 36.6959 38.9733 36.3434C38.7858 35.9744 38.9363 35.525 39.3093 35.3395C39.6823 35.1541 40.1366 35.3029 40.3241 35.6719ZM61.6751 12.5234C66.8349 12.5234 71.4236 15.5898 73.3992 20.2106C73.5618 20.5909 73.382 21.0297 72.9975 21.1905C72.613 21.3514 72.1695 21.1735 72.0069 20.7931C70.2658 16.721 66.2223 14.0189 61.6751 14.0189C55.4826 14.0189 50.4628 18.9844 50.4628 25.1102C50.4628 31.2358 55.4827 36.2016 61.6751 36.2016C67.8676 36.2016 72.8873 31.236 72.8873 25.1102C72.8873 24.6973 73.2257 24.3625 73.6432 24.3625C74.0607 24.3625 74.3991 24.6973 74.3991 25.1102C74.3991 32.0619 68.7026 37.6971 61.6751 37.6971C54.6478 37.6971 48.951 32.0618 48.951 25.1102C48.951 18.1585 54.6477 12.5234 61.6751 12.5234ZM43.7418 18.206C44.1365 18.3405 44.3462 18.7661 44.2102 19.1565C43.549 21.0546 43.2076 23.0586 43.2076 25.11C43.2076 25.523 42.8692 25.8578 42.4517 25.8578C42.0343 25.8578 41.6959 25.523 41.6959 25.11C41.6959 22.8922 42.0653 20.7236 42.7809 18.6693C42.9169 18.2789 43.3471 18.0714 43.7418 18.206ZM61.6752 5.34578C65.7118 5.34578 69.572 6.53355 72.8467 8.72177C73.1926 8.95292 73.2836 9.41772 73.05 9.75992C72.8163 10.1021 72.3464 10.1921 72.0005 9.96099C68.9738 7.93848 65.4078 6.84124 61.6752 6.84124C55.1427 6.84124 49.201 10.2237 45.874 15.6481C45.6575 16.0012 45.1926 16.1137 44.8357 15.8995C44.4788 15.6853 44.365 15.2255 44.5815 14.8724C48.1798 9.00559 54.6088 5.34578 61.6752 5.34578Z" fill="#646A76"/>
</svg>
