<svg width="24" height="24" viewBox="0 0 24 24" fill="none" xmlns="http://www.w3.org/2000/svg">
<path d="M12 24C18.6274 24 24 18.6274 24 12C24 5.37258 18.6274 0 12 0C5.37258 0 0 5.37258 0 12C0 18.6274 5.37258 24 12 24Z" fill="white"/>
<path d="M15.6586 9.6585C13.9025 8.48776 12.7318 7.9024 12.2927 7.75606C12.0001 7.60972 11.8537 7.60972 11.7074 7.75606C11.122 8.04874 9.95127 8.63411 8.34152 9.6585C6.00005 11.1219 6.29274 13.317 7.02445 15.3658C7.17079 15.8048 7.60981 16.0975 8.04884 16.0975H12.0001H15.9513C16.3903 16.0975 16.8293 15.8048 16.9757 15.3658C17.7074 13.4634 17.8537 11.2683 15.6586 9.6585Z" fill="#2A2D35"/>
</svg>
